<svg width="23" height="22" viewBox="0 0 23 22" fill="none" xmlns="http://www.w3.org/2000/svg">
<path d="M11.817 17.8964L6.50404 21.097C6.26933 21.2464 6.02395 21.3104 5.7679 21.2891C5.51185 21.2677 5.28781 21.1824 5.09577 21.033C4.90374 20.8837 4.75438 20.6972 4.64769 20.4736C4.541 20.2491 4.51967 19.9982 4.58368 19.7208L5.99194 13.6716L1.28705 9.60687C1.07368 9.41483 0.940536 9.19591 0.887619 8.9501C0.833849 8.70515 0.849638 8.46532 0.934988 8.23061C1.02034 7.99589 1.14836 7.80386 1.31906 7.6545C1.48976 7.50514 1.72447 7.40912 2.02319 7.36644L8.23237 6.82234L10.6328 1.12526C10.7395 0.869214 10.9051 0.677177 11.1296 0.549153C11.3532 0.421129 11.5823 0.357117 11.817 0.357117C12.0518 0.357117 12.2813 0.421129 12.5058 0.549153C12.7294 0.677177 12.8946 0.869214 13.0013 1.12526L15.4017 6.82234L21.6109 7.36644C21.9096 7.40912 22.1443 7.50514 22.315 7.6545C22.4857 7.80386 22.6138 7.99589 22.6991 8.23061C22.7845 8.46532 22.8007 8.70515 22.7478 8.9501C22.694 9.19591 22.5604 9.41483 22.347 9.60687L17.6421 13.6716L19.0504 19.7208C19.1144 19.9982 19.0931 20.2491 18.9864 20.4736C18.8797 20.6972 18.7304 20.8837 18.5383 21.033C18.3463 21.1824 18.1222 21.2677 17.8662 21.2891C17.6101 21.3104 17.3648 21.2464 17.13 21.097L11.817 17.8964Z" fill="url(#paint0_linear_119_83)"/>
<defs>
<linearGradient id="paint0_linear_119_83" x1="16.9249" y1="-4.50958" x2="-4.29437" y2="3.25869" gradientUnits="userSpaceOnUse">
<stop stop-color="#E0A872"/>
<stop offset="0.444501" stop-color="#F8E4BE"/>
<stop offset="0.549712" stop-color="#FFF3E0"/>
<stop offset="1" stop-color="#E0A872"/>
</linearGradient>
</defs>
</svg>
