<svg width="23" height="22" viewBox="0 0 23 22" fill="none" xmlns="http://www.w3.org/2000/svg">
<path d="M11.1823 4.90198L8.76742 9.2548L4.46101 9.60687L8.04517 12L7.04517 17.3523L11.1823 14.8879L15.215 17.3523L14.1588 12.7435L17.7115 9.67088L13.0386 9.2548L11.1823 4.90198ZM11.1823 17.8964L5.86927 21.097C5.63456 21.2464 5.38918 21.3104 5.13314 21.2891C4.87709 21.2677 4.65304 21.1824 4.46101 21.033C4.26897 20.8837 4.11961 20.6972 4.01292 20.4736C3.90624 20.2491 3.8849 19.9982 3.94891 19.7208L5.35718 13.6716L0.652289 9.60687C0.438915 9.41483 0.30577 9.19591 0.252853 8.9501C0.199083 8.70515 0.214873 8.46532 0.300222 8.23061C0.385572 7.9959 0.513596 7.80386 0.684295 7.6545C0.854994 7.50514 1.0897 7.40912 1.38843 7.36644L7.5976 6.82234L9.99805 1.12526C10.1047 0.869214 10.2703 0.677177 10.4948 0.549153C10.7184 0.421129 10.9476 0.357117 11.1823 0.357117C11.417 0.357117 11.6466 0.421129 11.871 0.549153C12.0947 0.677177 12.2598 0.869214 12.3665 1.12526L14.767 6.82234L20.9761 7.36644C21.2749 7.40912 21.5096 7.50514 21.6803 7.6545C21.851 7.80386 21.979 7.9959 22.0643 8.23061C22.1497 8.46532 22.1659 8.70515 22.113 8.9501C22.0592 9.19591 21.9256 9.41483 21.7123 9.60687L17.0074 13.6716L18.4156 19.7208C18.4797 19.9982 18.4583 20.2491 18.3516 20.4736C18.2449 20.6972 18.0956 20.8837 17.9035 21.033C17.7115 21.1824 17.4875 21.2677 17.2314 21.2891C16.9754 21.3104 16.73 21.2464 16.4953 21.097L11.1823 17.8964Z" fill="url(#paint0_linear_119_56)"/>
<defs>
<linearGradient id="paint0_linear_119_56" x1="16.2901" y1="-4.50958" x2="-4.92914" y2="3.25869" gradientUnits="userSpaceOnUse">
<stop stop-color="#E0A872"/>
<stop offset="0.444501" stop-color="#F8E4BE"/>
<stop offset="0.549712" stop-color="#FFF3E0"/>
<stop offset="1" stop-color="#E0A872"/>
</linearGradient>
</defs>
</svg>
