<svg width="60" height="50" viewBox="0 0 60 50" fill="none" xmlns="http://www.w3.org/2000/svg">
<path d="M58.3788 2.22654C58.0252 1.69354 57.5945 1.26702 57.1141 0.974028C56.6338 0.681037 56.1142 0.527971 55.5884 0.524536H11.8343C11.3084 0.527971 10.7889 0.681037 10.3085 0.974028C9.82813 1.26702 9.39747 1.69354 9.04382 2.22654C8.23748 3.43978 7.80081 5.02976 7.82346 6.67009C5.70249 7.1817 3.77232 8.66867 2.35163 10.8855C0.930936 13.1023 0.104686 15.9164 0.0092945 18.8632C-0.0860967 21.8099 0.555068 24.7131 1.82694 27.0934C3.09882 29.4738 4.92535 31.1889 7.00495 31.9555C7.99124 32.3507 9.01332 32.5531 10.0409 32.5569C11.3088 32.5417 12.5661 32.2386 13.7615 31.66C14.4064 32.9664 15.1045 34.2219 15.8525 35.4207C18.3383 39.4492 21.4536 42.6606 24.9679 44.8174H18.5834C18.1117 44.8174 17.6594 45.074 17.3259 45.5308C16.9923 45.9876 16.805 46.6072 16.805 47.2532C16.805 47.8992 16.9923 48.5188 17.3259 48.9756C17.6594 49.4324 18.1117 49.689 18.5834 49.689H48.8764C49.3481 49.689 49.8005 49.4324 50.134 48.9756C50.4675 48.5188 50.6549 47.8992 50.6549 47.2532C50.6549 46.6072 50.4675 45.9876 50.134 45.5308C49.8005 45.074 49.3481 44.8174 48.8764 44.8174H42.3952C45.9084 42.663 49.0216 39.4511 51.5032 35.4207C56.1986 27.9604 59.0634 17.8911 59.5694 7.06757C59.6199 6.19235 59.5404 5.31222 59.3358 4.48022C59.1311 3.64822 58.8056 2.88158 58.3788 2.22654ZM7.92765 27.2572C6.65548 26.7809 5.53599 25.7361 4.74703 24.2886C3.95806 22.8412 3.54486 21.0741 3.57308 19.2682C3.6013 17.4623 4.06931 15.7211 4.90276 14.3212C5.73622 12.9213 6.88731 11.943 8.1732 11.5417C8.75595 17.0597 10.0138 22.4037 11.8938 27.3489C10.59 27.8104 9.21928 27.7787 7.92765 27.2572ZM33.7039 41.2401C22.5868 41.2401 13.1662 26.0546 12.2584 6.68028H55.1493C54.6285 25.4023 44.8284 41.2401 33.7113 41.2401H33.7039Z" fill="#EFD9C1"/>
<path d="M18.0103 25.1066C18.6265 26.4759 19.3128 27.7837 20.064 29.0202C23.7846 35.1351 28.6288 38.4882 33.7111 38.4882C38.7935 38.4882 43.6377 35.1249 47.3583 29.0202C48.1095 27.7837 48.7958 26.4759 49.412 25.1066H18.0103Z" fill="#EFD9C1"/>
</svg>
