<svg width="44" height="56" viewBox="0 0 44 56" fill="none" xmlns="http://www.w3.org/2000/svg">
<path d="M43.85 1.09989C43.9527 1.31387 44.0036 1.54257 43.9998 1.77292C43.996 2.00326 43.9377 2.23073 43.828 2.44231C43.7184 2.65388 43.5597 2.8454 43.3609 3.00592C43.1621 3.16644 42.9272 3.29279 42.6696 3.37776L33.1678 6.53874L31.4816 13.2917C33.0667 13.6247 34.4957 14.0452 35.5791 14.5779C36.5403 15.051 37.9398 15.9656 37.9398 17.4515C37.9398 17.6127 37.9244 17.7669 37.8934 17.9141L33.8381 49.6921C33.7737 50.3354 33.543 50.9597 33.1618 51.5222C32.7806 52.0846 32.2578 52.5721 31.6292 52.9512C29.572 54.1427 25.3311 56 18.9404 56C12.5496 56 8.30882 54.1427 6.25164 52.9512C5.623 52.5721 5.10021 52.0846 4.71898 51.5222C4.33775 50.9597 4.10707 50.3354 4.0427 49.6921L0.0421553 17.9141C0.0158285 17.7608 0.00174589 17.6063 0 17.4515C0 15.9656 1.39956 15.051 2.3607 14.5779C3.46517 14.0382 4.91953 13.6106 6.53408 13.2742C9.7969 12.5944 14.1937 12.1949 18.9699 12.1949C21.9714 12.1949 24.8253 12.3526 27.3377 12.6399L29.2938 4.87765C29.3683 4.59892 29.5236 4.33956 29.7462 4.12212C29.9688 3.90469 30.252 3.73577 30.5711 3.63008L41.1099 0.125667C41.6287 -0.0471022 42.2087 -0.0415286 42.7226 0.141162C43.2364 0.323853 43.6419 0.668705 43.85 1.09989ZM26.423 16.0742C23.9506 15.8186 21.4613 15.6934 18.9699 15.6993C14.434 15.6993 10.3997 16.0848 7.55845 16.6735C6.6179 16.8533 5.70241 17.1141 4.82679 17.4515C5.44226 17.7073 6.35281 17.9771 7.55845 18.2295C10.3997 18.8182 14.434 19.2037 18.9699 19.2037C21.377 19.2037 23.6449 19.0985 25.6642 18.9058L26.423 16.0742ZM27.6539 22.228C25.0614 22.5329 22.0978 22.7081 18.9699 22.7081C14.1937 22.7081 9.7969 22.3086 6.53408 21.6287C5.9163 21.4996 5.30461 21.3512 4.70032 21.1837L8.23294 49.3241C8.28774 49.7481 8.48587 49.9759 8.66292 50.0775C10.1679 50.9501 13.5867 52.4956 18.9404 52.4956C24.2941 52.4956 27.7129 50.9501 29.2179 50.0775C29.3949 49.9759 29.5973 49.7481 29.6479 49.3241L33.2395 21.1837C32.6352 21.3512 32.0235 21.4996 31.4057 21.6287C30.168 21.8796 28.9158 22.0819 27.6539 22.228ZM4.07642 17.045C4.07642 17.045 4.08907 17.052 4.0975 17.066L4.07642 17.045ZM33.1088 17.4515C32.294 17.1315 31.4405 16.8847 30.5626 16.7155L30.1453 18.275L30.3771 18.2295C31.5828 17.9771 32.4933 17.7073 33.1088 17.4515Z" fill="#EFD9C1"/>
</svg>
