<svg width="78" height="65" viewBox="0 0 78 65" fill="none" xmlns="http://www.w3.org/2000/svg">
<path d="M29.4365 16.0158L30.6225 15.6726C36.0486 14.1025 41.9515 14.1025 47.3776 15.6726L48.5637 16.0158C51.9182 16.9865 53.6933 20.0396 52.5284 22.835C52.4102 23.1188 52.2635 23.3938 52.0899 23.6571C49.6742 27.322 48.2218 31.3732 47.8292 35.5418L47.3776 40.3379C42.0929 42.4963 35.9072 42.4963 30.6225 40.3379L30.1709 35.5418C29.7783 31.3732 28.3259 27.322 25.9102 23.6571C24.2005 21.0635 25.3376 17.8059 28.45 16.3812C28.7659 16.2366 29.0959 16.1144 29.4365 16.0158ZM15.2319 39.2957L21.7458 42.4884C23.1855 43.194 25.0382 42.8081 25.9102 41.621C26.9241 40.2406 28.4949 39.2063 30.341 38.7037L30.6225 38.627L30.3773 36.4237C29.8483 31.6702 28.1521 27.0582 25.394 22.8741L24.0776 20.877L21.3571 21.7955C16.825 23.3257 13.2431 26.3365 11.4458 30.1262C9.82566 33.5426 11.4321 37.4334 15.2319 39.2957ZM10.595 37.0231L12.5585 37.9854L16.4854 39.9101L18.3795 40.8385C19.4341 41.3553 19.8036 42.4777 19.2134 43.3707L13.8675 51.4584C10.2365 47.6834 8.91888 42.7159 10.3023 38.0173L10.595 37.0231ZM62.7682 39.2957L56.2543 42.4884C54.8146 43.194 52.9619 42.8081 52.0899 41.621C51.076 40.2406 49.5052 39.2063 47.6591 38.7037L47.3776 38.627L47.6228 36.4237C48.1518 31.6702 49.848 27.0582 52.6061 22.8741L53.9225 20.877L56.643 21.7955C61.1751 23.3257 64.7571 26.3365 66.5543 30.1262C68.1744 33.5426 66.568 37.4334 62.7682 39.2957ZM67.4051 37.0231L65.4416 37.9854L61.5147 39.9101L59.6206 40.8385C58.566 41.3553 58.1965 42.4777 58.7867 43.3707L64.1327 51.4584C67.7636 47.6834 69.0812 42.7159 67.6979 38.0173L67.4051 37.0231Z" stroke="#EFD9C1" stroke-width="3" stroke-linejoin="round"/>
</svg>
